<svg width="17" height="16" viewBox="0 0 17 16" fill="none" xmlns="http://www.w3.org/2000/svg">
<path d="M15.7824 16L9.66681 9.88514C9.17849 10.3011 8.61694 10.6231 7.98213 10.8509C7.34733 11.0788 6.70927 11.1927 6.06795 11.1927C4.50406 11.1927 3.18041 10.6514 2.09701 9.56875C1.01361 8.48614 0.471909 7.16298 0.471909 5.59927C0.471909 4.03556 1.01296 2.71175 2.09505 1.62783C3.17715 0.543914 4.50015 0.00130435 6.06405 2.34173e-06C7.62794 -0.00129966 8.95224 0.540334 10.0369 1.6249C11.1216 2.70947 11.664 4.03328 11.664 5.59634C11.664 6.27468 11.5439 6.93122 11.3036 7.56595C11.0634 8.20067 10.7476 8.74361 10.3563 9.19475L16.4719 15.3086L15.7824 16ZM6.06893 10.2152C7.36458 10.2152 8.4584 9.76926 9.35038 8.87739C10.2424 7.98552 10.6884 6.89151 10.6884 5.59536C10.6884 4.29922 10.2424 3.20554 9.35038 2.31431C8.4584 1.42309 7.36458 0.977156 6.06893 0.976505C4.77328 0.975854 3.67914 1.42179 2.7865 2.31431C1.89387 3.20684 1.44788 4.30052 1.44853 5.59536C1.44918 6.89021 1.89517 7.98389 2.7865 8.87641C3.67783 9.76894 4.77165 10.2149 6.06795 10.2142" fill="#E0E0E0"/>
</svg>
