<svg width="24" height="24" viewBox="0 0 24 24" fill="none" xmlns="http://www.w3.org/2000/svg">
<rect width="24" height="24" fill="#1E1E1E"/>
<path d="M9.107 2.67401C10.0064 2.22905 10.9966 1.99836 12 2.00001C15.727 2.00001 18.75 5.13601 18.75 9.00501V9.71001C18.7488 10.5516 18.989 11.3758 19.442 12.085L20.55 13.809C21.561 15.384 20.789 17.525 19.03 18.023C14.4337 19.3247 9.56629 19.3247 4.97 18.023C3.211 17.525 2.439 15.384 3.45 13.81L4.558 12.085C5.01105 11.3758 5.2512 10.5516 5.25 9.71001V9.00501C5.25 7.93101 5.483 6.91301 5.9 6.00301M7.5 19C8.155 20.748 9.922 22 12 22C12.2447 22 12.4847 21.9833 12.72 21.95M16.5 19C16.2291 19.7139 15.7811 20.3471 15.198 20.84" stroke="#FEFEFE" stroke-width="1.5" stroke-linecap="round"/>
</svg>
