<svg width="22" height="28" viewBox="0 0 22 28" fill="none" xmlns="http://www.w3.org/2000/svg">
<path d="M11 27.125L3.09126 17.7978C2.98136 17.6578 2.87261 17.5168 2.76501 17.375C1.41473 15.5951 0.684993 13.4216 0.687506 11.1875C0.687506 8.45246 1.774 5.82943 3.70797 3.89546C5.64194 1.96149 8.26496 0.875 11 0.875C13.7351 0.875 16.3581 1.96149 18.292 3.89546C20.226 5.82943 21.3125 8.45246 21.3125 11.1875C21.3147 13.4206 20.5853 15.5929 19.2359 17.3722L19.235 17.375C19.235 17.375 18.9538 17.7444 18.9116 17.7941L11 27.125ZM4.26219 16.2453C4.26219 16.2453 4.48063 16.5341 4.53032 16.5959L11 24.2263L17.4781 16.5856C17.5194 16.5341 17.7388 16.2434 17.7397 16.2425C18.8433 14.7886 19.4397 13.0129 19.4375 11.1875C19.4375 8.94974 18.5486 6.80362 16.9662 5.22129C15.3839 3.63895 13.2378 2.75 11 2.75C8.76224 2.75 6.61613 3.63895 5.03379 5.22129C3.45145 6.80362 2.56251 8.94974 2.56251 11.1875C2.56019 13.014 3.1573 14.7909 4.26219 16.2453Z" fill="#FEFEFE"/>
</svg>
